HIERARCHY
ROOT hip
{
  OFFSET 0 90.174 2.4664
  CHANNELS 6 Xposition Yposition Zposition Zrotation Xrotation Yrotation
  JOINT abdomen
  {
    OFFSET 0 -1.186 -1.5018
    CHANNELS 6 Xposition Yposition Zposition Zrotation Xrotation Yrotation
    JOINT abdomen2
    {
      OFFSET 0 9.964 0.2134
      CHANNELS 6 Xposition Yposition Zposition Zrotation Xrotation Yrotation
      JOINT chest
      {
        OFFSET 0 13.134 -3.2573
        CHANNELS 6 Xposition Yposition Zposition Zrotation Xrotation Yrotation
        JOINT neck
        {
          OFFSET 0 20.686 -1.6905
          CHANNELS 6 Xposition Yposition Zposition Zrotation Xrotation Yrotation
          JOINT head
          {
            OFFSET 0 7.238 -0.1237
            CHANNELS 6 Xposition Yposition Zposition Zrotation Xrotation Yrotation
            End Site
            {
              OFFSET 0 0 0
            }
          }
        }
        JOINT lCollar
        {
          OFFSET 1.7069 20.075 5.0056
          CHANNELS 6 Xposition Yposition Zposition Zrotation Xrotation Yrotation
          JOINT lShldr
          {
            OFFSET 13.6458 -0.047 -4.849
            CHANNELS 6 Xposition Yposition Zposition Zrotation Xrotation Yrotation
            JOINT lForeArm
            {
              OFFSET 28.3255 -0.9759 2.2888
              CHANNELS 6 Xposition Yposition Zposition Zrotation Xrotation Yrotation
              JOINT lHand
              {
                OFFSET 22.1583 -0.53 10.8316
                CHANNELS 6 Xposition Yposition Zposition Zrotation Xrotation Yrotation
                JOINT lThumb1
                {
                  OFFSET 0.786 0.112 2.5817
                  CHANNELS 6 Xposition Yposition Zposition Zrotation Xrotation Yrotation
                  JOINT lThumb2
                  {
                    OFFSET 0.3601 -0.878 4.2331
                    CHANNELS 6 Xposition Yposition Zposition Zrotation Xrotation Yrotation
                    JOINT lThumb2_End
                    {
                      OFFSET 1.8127 -1.216 2.2227
                      CHANNELS 6 Xposition Yposition Zposition Zrotation Xrotation Yrotation
                      End Site
                      {
                        OFFSET 0.0181 -0.0122 0.0222
                      }
                    }
                  }
                }
                JOINT lCarpal1
                {
                  OFFSET 0.9571 1.114 1.7695
                  CHANNELS 6 Xposition Yposition Zposition Zrotation Xrotation Yrotation
                  JOINT lIndex1
                  {
                    OFFSET 4.1246 0.487 4.1451
                    CHANNELS 6 Xposition Yposition Zposition Zrotation Xrotation Yrotation
                    JOINT lIndex2
                    {
                      OFFSET 3.4052 -1.454 2.7682
                      CHANNELS 6 Xposition Yposition Zposition Zrotation Xrotation Yrotation
                      JOINT lIndex2_End
                      {
                        OFFSET 1.4531 -1.795 1.2713
                        CHANNELS 6 Xposition Yposition Zposition Zrotation Xrotation Yrotation
                        End Site
                        {
                          OFFSET 0.0145 -0.0179 0.0127
                        }
                      }
                    }
                  }
                  JOINT lMid1
                  {
                    OFFSET 5.6954 0.21 2.1184
                    CHANNELS 6 Xposition Yposition Zposition Zrotation Xrotation Yrotation
                    JOINT lMid2
                    {
                      OFFSET 3.9766 -1.54 2.3863
                      CHANNELS 6 Xposition Yposition Zposition Zrotation Xrotation Yrotation
                      JOINT lMid2_End
                      {
                        OFFSET 1.4042 -1.926 1.125
                        CHANNELS 6 Xposition Yposition Zposition Zrotation Xrotation Yrotation
                        End Site
                        {
                          OFFSET 0.014 -0.0193 0.0113
                        }
                      }
                    }
                  }
                }
                JOINT lCarpal2
                {
                  OFFSET 2.0956 0.66 -0.3894
                  CHANNELS 6 Xposition Yposition Zposition Zrotation Xrotation Yrotation
                  JOINT lRing1
                  {
                    OFFSET 5.0395 -0.09 2.4971
                    CHANNELS 6 Xposition Yposition Zposition Zrotation Xrotation Yrotation
                    JOINT lRing2
                    {
                      OFFSET 3.7921 -1.552 1.4806
                      CHANNELS 6 Xposition Yposition Zposition Zrotation Xrotation Yrotation
                      JOINT lRing2_End
                      {
                        OFFSET 1.4655 -1.808 0.9609
                        CHANNELS 6 Xposition Yposition Zposition Zrotation Xrotation Yrotation
                        End Site
                        {
                          OFFSET 0.0147 -0.0181 0.0096
                        }
                      }
                    }
                  }
                  JOINT lPinky1
                  {
                    OFFSET 4.9141 -1.269 0.3591
                    CHANNELS 6 Xposition Yposition Zposition Zrotation Xrotation Yrotation
                    JOINT lPinky2
                    {
                      OFFSET 3.1477 -1.685 0.8462
                      CHANNELS 6 Xposition Yposition Zposition Zrotation Xrotation Yrotation
                      JOINT lPinky2_End
                      {
                        OFFSET 0.8055 -1.585 0.7955
                        CHANNELS 6 Xposition Yposition Zposition Zrotation Xrotation Yrotation
                        End Site
                        {
                          OFFSET 0.0081 -0.0158 0.008
                        }
                      }
                    }
                  }
                }
              }
            }
          }
        }
        JOINT rCollar
        {
          OFFSET -1.7069 20.075 5.0056
          CHANNELS 6 Xposition Yposition Zposition Zrotation Xrotation Yrotation
          JOINT rShldr
          {
            OFFSET -13.6458 -0.047 -4.849
            CHANNELS 6 Xposition Yposition Zposition Zrotation Xrotation Yrotation
            JOINT rForeArm
            {
              OFFSET -28.3255 -0.9759 2.2888
              CHANNELS 6 Xposition Yposition Zposition Zrotation Xrotation Yrotation
              JOINT rHand
              {
                OFFSET -22.1583 -0.53 10.8316
                CHANNELS 6 Xposition Yposition Zposition Zrotation Xrotation Yrotation
                JOINT rThumb1
                {
                  OFFSET -0.786 0.112 2.5817
                  CHANNELS 6 Xposition Yposition Zposition Zrotation Xrotation Yrotation
                  JOINT rThumb2
                  {
                    OFFSET -0.3601 -0.878 4.2331
                    CHANNELS 6 Xposition Yposition Zposition Zrotation Xrotation Yrotation
                    JOINT rThumb2_End
                    {
                      OFFSET -1.8127 -1.216 2.2227
                      CHANNELS 6 Xposition Yposition Zposition Zrotation Xrotation Yrotation
                      End Site
                      {
                        OFFSET -0.0181 -0.0122 0.0222
                      }
                    }
                  }
                }
                JOINT rCarpal1
                {
                  OFFSET -0.9571 1.114 1.7695
                  CHANNELS 6 Xposition Yposition Zposition Zrotation Xrotation Yrotation
                  JOINT rIndex1
                  {
                    OFFSET -4.1246 0.487 4.1451
                    CHANNELS 6 Xposition Yposition Zposition Zrotation Xrotation Yrotation
                    JOINT rIndex2
                    {
                      OFFSET -3.4052 -1.454 2.7682
                      CHANNELS 6 Xposition Yposition Zposition Zrotation Xrotation Yrotation
                      JOINT rIndex2_End
                      {
                        OFFSET -1.4531 -1.795 1.2713
                        CHANNELS 6 Xposition Yposition Zposition Zrotation Xrotation Yrotation
                        End Site
                        {
                          OFFSET -0.0145 -0.018 0.0127
                        }
                      }
                    }
                  }
                  JOINT rMid1
                  {
                    OFFSET -5.6954 0.21 2.1184
                    CHANNELS 6 Xposition Yposition Zposition Zrotation Xrotation Yrotation
                    JOINT rMid2
                    {
                      OFFSET -3.9766 -1.54 2.3863
                      CHANNELS 6 Xposition Yposition Zposition Zrotation Xrotation Yrotation
                      JOINT rMid2_End
                      {
                        OFFSET -1.4042 -1.926 1.125
                        CHANNELS 6 Xposition Yposition Zposition Zrotation Xrotation Yrotation
                        End Site
                        {
                          OFFSET -0.014 -0.0193 0.0113
                        }
                      }
                    }
                  }
                }
                JOINT rCarpal2
                {
                  OFFSET -2.0956 0.66 -0.3894
                  CHANNELS 6 Xposition Yposition Zposition Zrotation Xrotation Yrotation
                  JOINT rRing1
                  {
                    OFFSET -5.0395 -0.09 2.4971
                    CHANNELS 6 Xposition Yposition Zposition Zrotation Xrotation Yrotation
                    JOINT rRing2
                    {
                      OFFSET -3.7921 -1.552 1.4806
                      CHANNELS 6 Xposition Yposition Zposition Zrotation Xrotation Yrotation
                      JOINT rRing2_End
                      {
                        OFFSET -1.4655 -1.808 0.9609
                        CHANNELS 6 Xposition Yposition Zposition Zrotation Xrotation Yrotation
                        End Site
                        {
                          OFFSET -0.0147 -0.0181 0.0096
                        }
                      }
                    }
                  }
                  JOINT rPinky1
                  {
                    OFFSET -4.9141 -1.269 0.3592
                    CHANNELS 6 Xposition Yposition Zposition Zrotation Xrotation Yrotation
                    JOINT rPinky2
                    {
                      OFFSET -3.1477 -1.685 0.8462
                      CHANNELS 6 Xposition Yposition Zposition Zrotation Xrotation Yrotation
                      JOINT rPinky2_End
                      {
                        OFFSET -0.8055 -1.585 0.7955
                        CHANNELS 6 Xposition Yposition Zposition Zrotation Xrotation Yrotation
                        End Site
                        {
                          OFFSET -0.0081 -0.0158 0.008
                        }
                      }
                    }
                  }
                }
              }
            }
          }
        }
      }
    }
  }
  JOINT lThigh
  {
    OFFSET 8.367 -8.2066 0.5982
    CHANNELS 6 Xposition Yposition Zposition Zrotation Xrotation Yrotation
    JOINT lShin
    {
      OFFSET 2.1923 -43.463 -0.4932
      CHANNELS 6 Xposition Yposition Zposition Zrotation Xrotation Yrotation
      JOINT lFoot
      {
        OFFSET 0.7333 -45.8593 -2.6451
        CHANNELS 6 Xposition Yposition Zposition Zrotation Xrotation Yrotation
        End Site
        {
          OFFSET 2.6618 -4.2699 12.3931
        }
      }
    }
  }
  JOINT rThigh
  {
    OFFSET -8.367 -8.2066 0.5982
    CHANNELS 6 Xposition Yposition Zposition Zrotation Xrotation Yrotation
    JOINT rShin
    {
      OFFSET -2.1923 -43.463 -0.4931
      CHANNELS 6 Xposition Yposition Zposition Zrotation Xrotation Yrotation
      JOINT rFoot
      {
        OFFSET -0.7333 -45.8593 -2.6451
        CHANNELS 6 Xposition Yposition Zposition Zrotation Xrotation Yrotation
        End Site
        {
          OFFSET -2.6618 -4.2699 12.3931
        }
      }
    }
  }
}
MOTION
Frames:	4
Frame Time:	0.0333333
-7.40626 17.1594 57.956 -180 84.8772 180 0 -1.186 -1.5018 -0.112004 -3.20866 -0.423954 0 9.964 0.2134 -0.248413 -6.41636 -0.856222 0 13.134 -3.2573 -0.248414 -6.41639 -0.856222 0 20.686 -1.6905 -2.33909e-006 -22.6016 -3.44991e-006 0 7.238 -0.1237 -5.9633e-008 -7.5412 7.35147e-008 1.7069 20.075 5.0056 1.29797 -11.9557 -37.7788 13.6458 -0.047 -4.849 5.82069 -0.927256 -6.76757 28.3255 -0.9759 2.2888 24.6254 -17.2104 -9.20363 22.1583 -0.53 10.8316 13.8331 -15.1973 -4.9005 0.786 0.112 2.5817 1.59028e-015 -5.56597e-015 -9.54166e-015 0.3601 -0.878 4.2331 -8.82781e-031 -7.95139e-015 -6.36111e-015 1.8127 -1.216 2.2227 -0 -8.74653e-015 -0 0.9571 1.114 1.7695 3.53113e-031 3.18055e-015 -6.36111e-015 4.1246 0.487 4.1451 3.18055e-015 7.15625e-015 -3.18055e-015 3.4052 -1.454 2.7682 -8.82781e-031 -7.95139e-015 -6.36111e-015 1.4531 -1.795 1.2713 -0 -8.74653e-015 -0 5.6954 0.21 2.1184 3.18055e-015 7.15625e-015 -3.18055e-015 3.9766 -1.54 2.3863 -8.82781e-031 -7.95139e-015 -6.36111e-015 1.4042 -1.926 1.125 -0 -8.74653e-015 -0 2.0956 0.66 -0.3894 3.53113e-031 3.18055e-015 -6.36111e-015 5.0395 -0.09 2.4971 3.18055e-015 7.15625e-015 -3.18055e-015 3.7921 -1.552 1.4806 -8.82781e-031 -7.95139e-015 -6.36111e-015 1.4655 -1.808 0.9609 -0 -8.74653e-015 -0 4.9141 -1.269 0.3591 3.18055e-015 7.15625e-015 -3.18055e-015 3.1477 -1.685 0.8462 -8.82781e-031 -7.95139e-015 -6.36111e-015 0.8055 -1.585 0.7955 -0 -8.74653e-015 -0 -1.7069 20.075 5.0056 -0.585372 -12.2538 38.7805 -13.6458 -0.047 -4.849 -5.81768 -0.801079 7.89817 -28.3255 -0.9759 2.2888 -23.2846 -13.9487 9.64573 -22.1583 -0.53 10.8316 -13.5219 -14.7173 3.14258 -0.786 0.112 2.5817 -1.76556e-031 -3.18055e-015 -3.18055e-015 -0.3601 -0.878 4.2331 -2.86289e-007 -3.4418e-007 -1.70194e-006 -1.8127 -1.216 2.2227 3.18055e-015 1.59028e-015 -3.18055e-015 -0.9571 1.114 1.7695 -3.53113e-031 -3.18055e-015 -6.36111e-015 -4.1246 0.487 4.1451 -0 0 6.36111e-015 -3.4052 -1.454 2.7682 -2.86289e-007 -3.4418e-007 -1.70194e-006 -1.4531 -1.795 1.2713 4.41391e-032 7.95139e-016 -3.18055e-015 -5.6954 0.21 2.1184 -0 0 6.36111e-015 -3.9766 -1.54 2.3863 -2.86289e-007 -3.4418e-007 -1.70194e-006 -1.4042 -1.926 1.125 4.41391e-032 7.95139e-016 -3.18055e-015 -2.0956 0.66 -0.3894 -3.53113e-031 -3.18055e-015 -6.36111e-015 -5.0395 -0.09 2.4971 -0 0 6.36111e-015 -3.7921 -1.552 1.4806 -2.86289e-007 -3.4418e-007 -1.70194e-006 -1.4655 -1.808 0.9609 4.41391e-032 7.95139e-016 -3.18055e-015 -4.9141 -1.269 0.3592 -0 0 6.36111e-015 -3.1477 -1.685 0.8462 -2.86289e-007 -3.4418e-007 -1.70194e-006 -0.8055 -1.585 0.7955 4.41391e-032 7.95139e-016 -3.18055e-015 8.367 -8.2066 0.5982 -5.05093 -44.9311 -0.281371 2.1923 -43.463 -0.4932 0.509495 45.0076 -0.121637 0.7333 -45.8593 -2.6451 9.90926 13.6974 -1.01051 -8.367 -8.2066 0.5982 4.99464 -44.7803 0.420481 -2.1923 -43.463 -0.4931 0.463021 41.3201 -0.392967 -0.7333 -45.8593 -2.6451 -9.9163 13.4176 1.00511 
-7.40707 17.2804 57.8595 -180 84.2498 180 0 -1.186 -1.5018 -0.110017 -3.4646 -0.425199 0 9.964 0.2134 -0.246521 -6.92824 -0.859438 1.77636e-015 13.134 -3.2573 -0.24652 -6.92826 -0.859438 0 20.686 -1.6905 -1.88244e-005 -22.201 -7.49705e-006 0 7.238 -0.1237 2.53291e-007 -7.18551 5.9751e-009 1.7069 20.075 5.0056 1.10471 -11.5946 -37.9585 13.6458 -0.047 -4.849 5.82069 -0.927252 -6.76758 28.3255 -0.9759 2.2888 24.54 -17.1562 -9.116 22.1583 -0.53 10.8316 13.7499 -14.9729 -5.11992 0.786 0.112 2.5817 -9.75083e-007 1.38643e-006 1.30628e-007 0.3601 -0.878 4.2331 -1.38643e-006 -9.75083e-007 -1.60231e-007 1.8127 -1.216 2.2227 -2.05675e-007 -1.18076e-006 -1.45429e-007 0.9571 1.114 1.7695 1.59028e-015 -1.59028e-015 6.36111e-015 4.1246 0.487 4.1451 -9.75083e-007 1.38643e-006 1.30628e-007 3.4052 -1.454 2.7682 -1.38643e-006 -9.75083e-007 -1.60231e-007 1.4531 -1.795 1.2713 -2.05675e-007 -1.18076e-006 -1.45429e-007 5.6954 0.21 2.1184 -9.75083e-007 1.38643e-006 1.30628e-007 3.9766 -1.54 2.3863 -1.38643e-006 -9.75083e-007 -1.60231e-007 1.4042 -1.926 1.125 -2.05675e-007 -1.18076e-006 -1.45429e-007 2.0956 0.66 -0.3894 1.59028e-015 -1.59028e-015 6.36111e-015 5.0395 -0.09 2.4971 -9.75083e-007 1.38643e-006 1.30628e-007 3.7921 -1.552 1.4806 -1.38643e-006 -9.75083e-007 -1.60231e-007 1.4655 -1.808 0.9609 -2.05675e-007 -1.18076e-006 -1.45429e-007 4.9141 -1.269 0.3591 -9.75083e-007 1.38643e-006 1.30628e-007 3.1477 -1.685 0.8462 -1.38643e-006 -9.75083e-007 -1.60231e-007 0.8055 -1.585 0.7955 -2.05675e-007 -1.18076e-006 -1.45429e-007 -1.7069 20.075 5.0056 -0.408828 -11.8909 38.9698 -13.6458 -0.047 -4.849 -5.81767 -0.801072 7.89818 -28.3255 -0.9759 2.2888 -23.2008 -13.8885 9.53577 -22.1583 -0.53 10.8316 -13.4362 -14.4985 3.37678 -0.786 0.112 2.5817 1.76556e-031 -3.18055e-015 3.18055e-015 -0.3601 -0.878 4.2331 -4.99698e-007 7.80327e-007 7.75653e-006 -1.8127 -1.216 2.2227 -3.18055e-015 1.59028e-015 6.36111e-015 -0.9571 1.114 1.7695 -0 0 3.18055e-015 -4.1246 0.487 4.1451 3.97252e-031 -7.15625e-015 3.18055e-015 -3.4052 -1.454 2.7682 -4.99698e-007 7.80327e-007 7.75653e-006 -1.4531 -1.795 1.2713 -6.36111e-015 4.77083e-015 6.36111e-015 -5.6954 0.21 2.1184 3.97252e-031 -7.15625e-015 3.18055e-015 -3.9766 -1.54 2.3863 -4.99698e-007 7.80327e-007 7.75653e-006 -1.4042 -1.926 1.125 -6.36111e-015 4.77083e-015 6.36111e-015 -2.0956 0.66 -0.3894 -0 0 3.18055e-015 -5.0395 -0.09 2.4971 3.97252e-031 -7.15625e-015 3.18055e-015 -3.7921 -1.552 1.4806 -4.99698e-007 7.80327e-007 7.75653e-006 -1.4655 -1.808 0.9609 -6.36111e-015 4.77083e-015 6.36111e-015 -4.9141 -1.269 0.3592 3.97252e-031 -7.15625e-015 3.18055e-015 -3.1477 -1.685 0.8462 -4.99698e-007 7.80327e-007 7.75653e-006 -0.8055 -1.585 0.7955 -6.36111e-015 4.77083e-015 6.36111e-015 8.367 -8.2066 0.5982 -5.11522 -45.7786 -0.337965 2.1923 -43.463 -0.4932 0.516465 45.0332 -0.125586 0.7333 -45.8593 -2.6451 9.90884 13.698 -1.01048 -8.367 -8.2066 0.5982 5.0588 -45.6262 0.478629 -2.1923 -43.463 -0.4931 0.468536 41.3016 -0.395475 -0.7333 -45.8593 -2.6451 -9.91568 13.4146 1.00479 
-7.40788 17.4018 57.7624 -180 83.6225 180 0 -1.186 -1.5018 -0.108022 -3.72034 -0.426393 0 9.964 0.2134 -0.24463 -7.43972 -0.862568 0 13.134 -3.2573 -0.24463 -7.43973 -0.862567 0 20.686 -1.6905 2.22524e-006 -21.8002 5.29742e-006 0 7.238 -0.1237 -6.66657e-007 -6.82984 -1.30147e-007 1.7069 20.075 5.0056 0.912848 -11.233 -38.1368 13.6458 -0.047 -4.849 5.82069 -0.927261 -6.76758 28.3255 -0.9759 2.2888 24.4545 -17.1022 -9.02831 22.1583 -0.53 10.8316 13.6676 -14.7483 -5.3388 0.786 0.112 2.5817 4.41391e-032 -7.95139e-016 3.18055e-015 0.3601 -0.878 4.2331 -1.59028e-015 0 3.18055e-015 1.8127 -1.216 2.2227 1.59028e-015 -1.59028e-015 6.36111e-015 0.9571 1.114 1.7695 -0 0 3.18055e-015 4.1246 0.487 4.1451 3.18055e-015 6.36111e-015 3.18055e-015 3.4052 -1.454 2.7682 -3.18055e-015 0 -0 1.4531 -1.795 1.2713 -4.41391e-032 -7.95139e-016 -3.18055e-015 5.6954 0.21 2.1184 3.18055e-015 6.36111e-015 3.18055e-015 3.9766 -1.54 2.3863 -3.18055e-015 0 -0 1.4042 -1.926 1.125 -4.41391e-032 -7.95139e-016 -3.18055e-015 2.0956 0.66 -0.3894 -0 0 3.18055e-015 5.0395 -0.09 2.4971 3.18055e-015 6.36111e-015 3.18055e-015 3.7921 -1.552 1.4806 -3.18055e-015 0 -0 1.4655 -1.808 0.9609 -4.41391e-032 -7.95139e-016 -3.18055e-015 4.9141 -1.269 0.3591 3.18055e-015 6.36111e-015 3.18055e-015 3.1477 -1.685 0.8462 -3.18055e-015 0 -0 0.8055 -1.585 0.7955 -4.41391e-032 -7.95139e-016 -3.18055e-015 -1.7069 20.075 5.0056 -0.233766 -11.5274 39.1578 -13.6458 -0.047 -4.849 -5.81769 -0.801079 7.89818 -28.3255 -0.9759 2.2888 -23.1168 -13.8284 9.42577 -22.1583 -0.53 10.8316 -13.3516 -14.2793 3.61038 -0.786 0.112 2.5817 3.18055e-015 -7.15625e-015 -3.18055e-015 -0.3601 -0.878 4.2331 -6.36111e-015 -7.95139e-015 -0 -1.8127 -1.216 2.2227 -7.94503e-031 -7.15625e-015 -6.36111e-015 -0.9571 1.114 1.7695 3.18055e-015 7.95139e-016 3.18055e-015 -4.1246 0.487 4.1451 3.18055e-015 -2.14687e-014 6.36111e-015 -3.4052 -1.454 2.7682 3.18055e-015 -7.15625e-015 -3.18055e-015 -1.4531 -1.795 1.2713 -3.08973e-031 -5.56597e-015 -3.18055e-015 -5.6954 0.21 2.1184 3.18055e-015 -2.14687e-014 6.36111e-015 -3.9766 -1.54 2.3863 3.18055e-015 -7.15625e-015 -3.18055e-015 -1.4042 -1.926 1.125 -3.08973e-031 -5.56597e-015 -3.18055e-015 -2.0956 0.66 -0.3894 3.18055e-015 7.95139e-016 3.18055e-015 -5.0395 -0.09 2.4971 3.18055e-015 -2.14687e-014 6.36111e-015 -3.7921 -1.552 1.4806 3.18055e-015 -7.15625e-015 -3.18055e-015 -1.4655 -1.808 0.9609 -3.08973e-031 -5.56597e-015 -3.18055e-015 -4.9141 -1.269 0.3592 3.18055e-015 -2.14687e-014 6.36111e-015 -3.1477 -1.685 0.8462 3.18055e-015 -7.15625e-015 -3.18055e-015 -0.8055 -1.585 0.7955 -3.08973e-031 -5.56597e-015 -3.18055e-015 8.367 -8.2066 0.5982 -5.18178 -46.6258 -0.396823 2.1923 -43.463 -0.4932 0.523442 45.0586 -0.129548 0.7333 -45.8593 -2.6451 9.90845 13.6987 -1.01046 -8.367 -8.2066 0.5982 5.12521 -46.4719 0.539032 -2.1923 -43.463 -0.4931 0.474032 41.2832 -0.397987 -0.7333 -45.8593 -2.6451 -9.91509 13.4116 1.00447 
-7.4087 17.5235 57.6648 -180 82.9952 180 0 -1.186 -1.5018 -0.106021 -3.97577 -0.427538 -8.88178e-016 9.964 0.2134 -0.242741 -7.95061 -0.86561 0 13.134 -3.2573 -0.242741 -7.95066 -0.86561 0 20.686 -1.6905 1.39882e-006 -21.3996 1.28152e-006 0 7.238 -0.1237 -6.60792e-007 -6.47419 5.10939e-008 1.7069 20.075 5.0056 0.722401 -10.8708 -38.3135 13.6458 -0.047 -4.849 5.82069 -0.927262 -6.76759 28.3255 -0.9759 2.2888 24.369 -17.0482 -8.94056 22.1583 -0.53 10.8316 13.5862 -14.5233 -5.55708 0.786 0.112 2.5817 3.18055e-015 -3.97569e-015 -3.18055e-015 0.3601 -0.878 4.2331 3.18055e-015 -6.36111e-015 3.18055e-015 1.8127 -1.216 2.2227 4.77083e-015 -5.56597e-015 -0 0.9571 1.114 1.7695 1.59028e-015 2.38542e-015 -3.18055e-015 4.1246 0.487 4.1451 -6.62086e-031 2.38542e-015 1.59028e-014 3.4052 -1.454 2.7682 1.59028e-015 -6.36111e-015 -0 1.4531 -1.795 1.2713 -0 -5.56597e-015 -0 5.6954 0.21 2.1184 -6.62086e-031 2.38542e-015 1.59028e-014 3.9766 -1.54 2.3863 1.59028e-015 -6.36111e-015 -0 1.4042 -1.926 1.125 -0 -5.56597e-015 -0 2.0956 0.66 -0.3894 1.59028e-015 2.38542e-015 -3.18055e-015 5.0395 -0.09 2.4971 -6.62086e-031 2.38542e-015 1.59028e-014 3.7921 -1.552 1.4806 1.59028e-015 -6.36111e-015 -0 1.4655 -1.808 0.9609 -0 -5.56597e-015 -0 4.9141 -1.269 0.3591 -6.62086e-031 2.38542e-015 1.59028e-014 3.1477 -1.685 0.8462 1.59028e-015 -6.36111e-015 -0 0.8055 -1.585 0.7955 -0 -5.56597e-015 -0 -1.7069 20.075 5.0056 -0.0601426 -11.1634 39.3443 -13.6458 -0.047 -4.849 -5.81769 -0.801082 7.89819 -28.3255 -0.9759 2.2888 -23.0328 -13.7684 9.31571 -22.1583 -0.53 10.8316 -13.2679 -14.0598 3.84342 -0.786 0.112 2.5817 -3.18055e-015 -9.54166e-015 3.18055e-015 -0.3601 -0.878 4.2331 -3.18055e-015 -9.54166e-015 6.36111e-015 -1.8127 -1.216 2.2227 3.53113e-031 -6.36111e-015 3.18055e-015 -0.9571 1.114 1.7695 -3.18055e-015 -1.59028e-015 -0 -4.1246 0.487 4.1451 -6.36111e-015 -3.18055e-015 6.36111e-015 -3.4052 -1.454 2.7682 3.18055e-015 -6.36111e-015 6.36111e-015 -1.4531 -1.795 1.2713 7.94503e-031 -7.15625e-015 6.36111e-015 -5.6954 0.21 2.1184 -6.36111e-015 -3.18055e-015 6.36111e-015 -3.9766 -1.54 2.3863 3.18055e-015 -6.36111e-015 6.36111e-015 -1.4042 -1.926 1.125 7.94503e-031 -7.15625e-015 6.36111e-015 -2.0956 0.66 -0.3894 -3.18055e-015 -1.59028e-015 -0 -5.0395 -0.09 2.4971 -6.36111e-015 -3.18055e-015 6.36111e-015 -3.7921 -1.552 1.4806 3.18055e-015 -6.36111e-015 6.36111e-015 -1.4655 -1.808 0.9609 7.94503e-031 -7.15625e-015 6.36111e-015 -4.9141 -1.269 0.3592 -6.36111e-015 -3.18055e-015 6.36111e-015 -3.1477 -1.685 0.8462 3.18055e-015 -6.36111e-015 6.36111e-015 -0.8055 -1.585 0.7955 7.94503e-031 -7.15625e-015 6.36111e-015 8.367 -8.2066 0.5982 -5.25074 -47.4727 -0.45809 2.1923 -43.463 -0.4932 0.530433 45.084 -0.133496 0.7333 -45.8593 -2.6451 9.9081 13.6994 -1.01045 -8.367 -8.2066 0.5982 5.19398 -47.317 0.601794 -2.1923 -43.463 -0.4931 0.479515 41.2644 -0.400477 -0.7333 -45.8593 -2.6451 -9.91452 13.4087 1.00417 
